<?xml version="1.0" encoding="utf-8"?>
<svg version="1.1" width="1280" height="354" xmlns="http://www.w3.org/2000/svg">
  <path d="M0 0 C2.24 1.87 4.37 3.82 6.5 5.81 C7.5 6.72 7.5 6.72 8.51 7.64 C33.13 30.22 52.08 62.17 53.66 96.25 C54.89 136.59 44.68 170.44 16.94 200.59 C-7.76 226.12 -39.24 239.42 -74.53 240.16 C-112.82 240.44 -144.55 228.33 -172.5 201.81 C-173.43 200.93 -174.36 200.06 -175.32 199.15 C-197.18 177.98 -210.91 146.39 -211.68 115.95 C-212.18 83.43 -204.17 48.68 -181.7 23.82 C-180.55 22.67 -179.38 21.54 -178.19 20.44 C-176.43 18.74 -174.92 16.95 -173.38 15.06 C-164.09 4.42 -153 -2.87 -140.5 -9.19 C-139.72 -9.58 -138.95 -9.98 -138.14 -10.38 C-95.02 -32.06 -39.16 -30.83 0 0 Z M-152.5 3.81 C-153.05 4.21 -153.6 4.61 -154.17 5.03 C-180.72 24.4 -199.45 53.55 -204.88 86.06 C-210.05 120.43 -203.46 154.64 -182.89 183.1 C-162.35 210.07 -131.74 228.88 -98.24 234.34 C-80.36 236.59 -59.68 236.61 -42.5 230.81 C-41.82 230.59 -41.15 230.37 -40.45 230.15 C-35.71 228.58 -31.09 226.77 -26.5 224.81 C-25.36 224.33 -24.23 223.86 -23.06 223.36 C-15.65 219.96 -9.19 215.68 -2.62 210.88 C-1.84 210.3 -1.06 209.73 -0.25 209.14 C17.22 196.02 33.88 175.8 40.5 154.81 C40.74 154.08 40.98 153.35 41.23 152.6 C52.28 119.06 51.56 82.81 35.5 50.81 C18.08 18.51 -8.29 -4.65 -43.58 -15.55 C-80.37 -26.04 -121.72 -19.15 -152.5 3.81 Z " fill="#BB9F57" transform="translate(274.5,72.1875)"/>
  <path d="M0 0 C1.51 2.43 1.51 2.43 2 5 C1.1 7.46 1.1 7.46 -0.38 9.81 C-0.86 10.6 -1.34 11.39 -1.84 12.21 C-2.22 12.8 -2.6 13.39 -3 14 C-6.77 12.56 -10.3 10.86 -13.88 9 C-23.93 3.95 -34.83 1.38 -46 4 C-54.02 6.92 -54.02 6.92 -59.82 12.83 C-61.71 17.91 -61.79 22.66 -61 28 C-56.5 34.54 -48.78 37.39 -41.3 39.15 C-39.83 39.52 -38.36 39.89 -36.88 40.26 C-34.61 40.82 -32.33 41.37 -30.05 41.92 C-16.64 45.18 -3.55 48.38 4.1 60.79 C6.92 65.96 7.62 70.16 7.5 76 C7.52 77.13 7.52 77.13 7.55 78.29 C7.5 85.11 5.32 90.08 1.11 95.39 C0.47 96 -0.16 96.62 -0.81 97.25 C-1.44 97.87 -2.06 98.5 -2.71 99.14 C-8.06 103.48 -13.04 105.64 -19.81 106.75 C-20.52 106.87 -21.22 106.99 -21.95 107.12 C-27.4 108.01 -32.51 108.46 -38 108 C-39.13 107.91 -40.25 107.81 -41.41 107.72 C-56.84 106.06 -68.83 101.42 -81 92 C-79.57 87.41 -77.8 83.92 -75 80 C-72.49 81.24 -70.01 82.53 -67.53 83.84 C-52.86 91.54 -38.17 95.77 -21.54 92.27 C-17.51 90.94 -14.61 89.52 -11.38 86.75 C-8.88 81.75 -8.69 77.67 -9.69 72.31 C-11.42 67.93 -13.37 64.93 -17.52 62.56 C-25.9 59.27 -34.38 56.73 -43.09 54.45 C-54.8 51.38 -67.27 47.92 -74.95 37.82 C-78.8 31.13 -78.8 23.49 -76.88 16.19 C-73.67 6.45 -69.21 -0.26 -60 -5 C-41.19 -14.19 -17.05 -12.64 0 0 Z " fill="#BCA057" transform="translate(833,116)"/>
  <path d="M0 0 C1.07 -0.01 2.14 -0.03 3.25 -0.04 C6 0.19 6 0.19 8 2.19 C8.25 4.21 8.25 4.21 8.24 6.76 C8.24 7.72 8.25 8.68 8.25 9.67 C8.24 11.26 8.24 11.26 8.23 12.88 C8.23 13.99 8.23 15.1 8.23 16.25 C8.23 19.94 8.21 23.63 8.2 27.32 C8.19 29.87 8.19 32.43 8.19 34.98 C8.18 41.02 8.16 47.06 8.14 53.11 C8.12 59.98 8.11 66.86 8.1 73.74 C8.08 87.89 8.04 102.04 8 116.19 C5.69 116.21 3.38 116.23 1.06 116.25 C-0.23 116.26 -1.51 116.27 -2.84 116.29 C-6 116.19 -6 116.19 -7 115.19 C-7.13 112.57 -7.19 109.98 -7.21 107.36 C-7.22 106.54 -7.23 105.72 -7.24 104.88 C-7.27 102.16 -7.29 99.44 -7.32 96.71 C-7.34 94.83 -7.36 92.95 -7.38 91.07 C-7.43 86.11 -7.48 81.14 -7.53 76.18 C-7.58 71.12 -7.64 66.06 -7.69 61 C-7.8 51.06 -7.9 41.12 -8 31.19 C-8.62 32.28 -9.24 33.37 -9.88 34.49 C-11.81 37.88 -13.86 41.19 -15.94 44.5 C-18.85 49.18 -21.47 53.92 -23.87 58.87 C-26.87 65.02 -30.38 70.83 -34 76.62 C-36.96 81.39 -39.61 86.18 -41.99 91.26 C-43 93.19 -43 93.19 -45 95.19 C-47.06 95.56 -47.06 95.56 -49.44 95.62 C-50.61 95.68 -50.61 95.68 -51.81 95.75 C-54 95.19 -54 95.19 -55.97 93.08 C-57 90.19 -57 90.19 -56.04 87.08 C-55.4 85.85 -54.74 84.64 -54.06 83.44 C-53.7 82.75 -53.34 82.07 -52.96 81.37 C-51.67 78.96 -50.34 76.57 -49 74.19 C-47.94 72.28 -46.89 70.37 -45.83 68.46 C-42.86 63.11 -39.86 57.79 -36.85 52.47 C-34.45 48.21 -32.07 43.95 -29.68 39.69 C-27.95 36.59 -26.22 33.49 -24.48 30.4 C-22.08 26.12 -19.69 21.83 -17.3 17.54 C-16.12 15.42 -14.93 13.3 -13.75 11.19 C-13.2 10.2 -12.65 9.2 -12.09 8.18 C-11.58 7.28 -11.07 6.37 -10.55 5.44 C-10.1 4.64 -9.66 3.84 -9.2 3.02 C-6.86 -0.54 -3.96 0.02 0 0 Z " transform="translate(526,105.8125)" style=""/>
  <path d="M 0 0 C 0.89 0.01 1.78 0.01 2.7 0.02 C 4.88 0.19 4.88 0.19 5.88 1.19 C 5.99 2.72 6.03 4.26 6.05 5.79 C 6.06 6.77 6.08 7.76 6.09 8.77 C 6.1 9.84 6.11 10.91 6.12 12.02 C 6.15 14.29 6.19 16.55 6.22 18.82 C 6.27 22.39 6.31 25.97 6.35 29.55 C 6.39 33 6.44 36.45 6.5 39.89 C 6.5 40.95 6.51 42 6.52 43.08 C 6.53 57.61 6.53 57.61 13.24 69.88 C 18.85 74.36 24.99 73.72 31.88 73.19 C 39.34 70.98 46.19 66.35 50.02 59.46 C 51.82 54.69 51.44 49.58 51.41 44.54 C 51.43 43.34 51.44 42.13 51.45 40.89 C 51.49 37.05 51.49 33.21 51.5 29.38 C 51.52 25.52 51.54 21.66 51.57 17.81 C 51.59 15.41 51.6 13.02 51.6 10.62 C 51.61 9 51.61 9 51.62 7.35 C 51.62 5.93 51.62 5.93 51.62 4.47 C 51.88 2.19 51.88 2.19 53.88 0.19 C 56.66 -0.04 56.66 -0.04 59.94 0 C 61.56 0.01 61.56 0.01 63.22 0.02 C 65.88 0.19 65.88 0.19 66.88 1.19 C 66.98 3.32 67.169 85.078 67.139 85.938 C 57.659 86.528 61.4 85.78 56.69 83.94 C 53.7 79.4 54.5 74.46 54.88 69.19 C 54.21 69.19 53.56 69.19 52.88 69.19 C 52.61 69.78 52.34 70.37 52.07 70.97 C 47.84 78.82 39.77 83.54 31.56 86.3 C 24.34 88.04 15.36 88.82 8.44 85.62 C 6.64 84.5 6.64 84.5 4.88 83.19 C 4.18 82.7 3.48 82.22 2.76 81.71 C -4.15 76.37 -6.68 69.63 -8.12 61.19 C -8.22 59.21 -8.27 57.22 -8.29 55.24 C -8.3 54.06 -8.31 52.89 -8.32 51.68 C -8.32 50.42 -8.32 49.16 -8.33 47.86 C -8.33 46.57 -8.34 45.27 -8.35 43.93 C -8.36 41.19 -8.36 38.45 -8.37 35.71 C -8.37 32.2 -8.39 28.68 -8.42 25.17 C -8.45 21.82 -8.45 18.47 -8.45 15.11 C -8.47 13.85 -8.48 12.58 -8.49 11.28 C -8.49 10.12 -8.48 8.95 -8.48 7.75 C -8.49 6.72 -8.49 5.69 -8.49 4.63 C -8.37 3.83 -8.25 3.02 -8.12 2.19 C -4.84 0 -3.81 -0.06 0 0 Z" fill="#BCA057" transform="translate(976.125,136.8125)"/>
  <path d="M0 0 C8.27 7.92 10.07 17.85 10.34 28.98 C10.34 31.45 10.32 33.92 10.29 36.39 C10.29 37.71 10.28 39.02 10.28 40.37 C10.27 43.82 10.24 47.26 10.21 50.71 C10.17 54.24 10.16 57.77 10.15 61.31 C10.11 68.2 10.06 75.1 10 82 C7.85 82.03 5.71 82.05 3.56 82.06 C2.37 82.07 1.17 82.09 -0.06 82.1 C-3 82 -3 82 -4 81 C-4.11 79.43 -4.16 77.85 -4.17 76.27 C-4.19 75.26 -4.2 74.25 -4.21 73.21 C-4.22 72.11 -4.24 71.01 -4.25 69.88 C-4.28 67.56 -4.31 65.24 -4.35 62.92 C-4.39 59.25 -4.44 55.58 -4.48 51.92 C-4.52 48.38 -4.57 44.85 -4.62 41.32 C-4.63 40.23 -4.64 39.15 -4.65 38.04 C-4.83 25.68 -4.83 25.68 -9.44 14.44 C-9.85 13.8 -10.26 13.16 -10.68 12.5 C-12.6 10.32 -14.54 10.05 -17.35 9.76 C-25.36 9.54 -31.96 10.71 -38.3 15.87 C-46.07 23.38 -49.16 30.37 -49.38 41.15 C-49.4 42.71 -49.4 42.71 -49.41 44.3 C-49.43 45.38 -49.45 46.46 -49.47 47.57 C-49.53 51.01 -49.58 54.44 -49.62 57.88 C-49.66 60.21 -49.7 62.54 -49.74 64.88 C-49.84 70.58 -49.92 76.29 -50 82 C-52.15 82.03 -54.29 82.05 -56.44 82.06 C-57.63 82.07 -58.83 82.09 -60.06 82.1 C-63 82 -63 82 -64 81 C-64.11 78.45 -64.15 75.94 -64.15 73.39 C-64.15 72.59 -64.15 71.8 -64.16 70.98 C-64.16 68.33 -64.17 65.68 -64.17 63.04 C-64.17 61.2 -64.17 59.37 -64.18 57.54 C-64.18 53.69 -64.19 49.85 -64.19 46 C-64.19 41.06 -64.2 36.12 -64.22 31.19 C-64.23 27.4 -64.23 23.62 -64.23 19.83 C-64.23 18.01 -64.23 16.19 -64.24 14.37 C-64.25 11.82 -64.25 9.28 -64.24 6.74 C-64.25 5.98 -64.25 5.22 -64.26 4.44 C-64.23 -0.77 -64.23 -0.77 -62 -3 C-59.65 -3.23 -59.65 -3.23 -56.94 -3.19 C-55.59 -3.18 -55.59 -3.18 -54.21 -3.17 C-52 -3 -52 -3 -51 -2 C-50.67 1.62 -50.49 5.24 -50.28 8.88 C-50.35 11.86 -50.35 11.86 -49 13 C-48.61 12.49 -48.22 11.98 -47.82 11.46 C-39.91 1.73 -30.41 -2.26 -18.38 -4.75 C-11.46 -5.26 -5.57 -4.51 0 0 Z " transform="translate(674,140)" style=""/>
  <path d="M 915 151 C 922.84 156.2 927.37 163.16 929.38 172.31 C 930.78 181.86 930.14 191.98 924.56 200.09 C 920.56 205.07 916.2 209.13 910 211 C 907.22 211.29 904.6 211.47 901.81 211.5 C 901.14 211.51 900.46 211.51 899.76 211.52 C 891.78 211.32 885.83 207.09 880 202 C 874.28 195.04 872.32 187.08 872.59 178.18 C 873.87 168.15 878.3 159.56 886 153 C 895.07 147.09 905.21 146.19 915 151 Z M 897.06 135.19 C 887.22 137.8 875.49 141.54 869.21 150.13 C 868.8 150.77 868.4 151.38 868 152 C 862.61 160 859.39 167.42 858 177 C 856.79 188.37 861.01 200.1 868.05 208.95 C 876.19 217.51 885.63 223.18 897.45 224.34 C 910.72 224.72 921.88 221.92 931.62 212.75 C 940.08 203.77 945.06 193.44 945.44 180.94 C 944.86 166.71 939.3 154.82 929 145 C 919.89 137.5 908.8 134.44 897.06 135.19 Z" style="fill: rgb(188, 160, 87);"/>
  <path d="M 1127 152 C 1132.54 156.8 1137.38 162.7 1138.45 170.12 C 1138.55 173.71 1138.61 177.29 1138.62 180.88 C 1138.67 182.12 1138.72 183.36 1138.76 184.64 C 1138.81 190.66 1138.77 194.95 1134.72 199.64 C 1133.51 200.79 1132.27 201.92 1131 203 C 1130.24 203.75 1129.49 204.5 1128.71 205.28 C 1128.08 205.83 1127.46 206.37 1126.81 206.94 C 1126.18 207.5 1125.55 208.07 1124.89 208.65 C 1119.18 212.71 1110.69 211.51 1104 211 C 1100.93 210.11 1098.58 208.86 1096 207 C 1095.11 206.4 1094.23 205.8 1093.31 205.19 C 1086.67 198.91 1083.17 191.83 1082.9 182.6 C 1083.37 172.05 1085.67 163.56 1093 155.76 C 1103.1 146.88 1115.18 145.56 1127 152 Z M 1083.309 145.435 C 1074.249 154.085 1068.989 166.025 1067.759 178.395 C 1067.409 188.995 1070.329 200.395 1077.189 208.625 C 1078.139 209.435 1079.069 210.215 1079.999 211.005 C 1087.159 218.045 1093.189 223.415 1103.499 224.305 C 1117.939 224.595 1125.899 219.705 1136.409 210.415 C 1136.949 209.935 1137.479 209.465 1137.999 209.005 C 1137.919 213.655 1137.849 218.315 1137.809 222.975 C 1137.789 224.875 1137.769 226.785 1137.749 228.685 C 1137.699 231.485 1137.649 234.295 1137.629 237.095 C 1137.619 238.005 1137.619 238.885 1137.609 239.765 C 1137.529 242.885 1137.459 245.915 1137.999 249.005 C 1139.989 252.165 1141.629 253.745 1144.689 255.875 C 1149.059 257.365 1147.992 256.967 1152.462 256.147 C 1152.472 255.347 1152.269 154.105 1152.239 150.735 C 1152.229 149.685 1152.219 148.675 1152.209 147.665 C 1152.199 146.665 1152.189 145.695 1152.189 144.725 C 1152.179 143.825 1152.169 142.945 1152.159 142.065 C 1152.149 140.715 1152.109 139.355 1151.999 138.005 C 1150.999 137.005 1150.999 137.005 1148.999 136.835 C 1147.769 136.825 1147.769 136.825 1146.559 136.815 C 1144.129 136.765 1144.129 136.765 1141.999 137.005 C 1139.999 139.005 1139.999 139.005 1139.589 141.605 C 1139.519 142.625 1139.449 143.625 1139.379 144.625 C 1139.299 145.655 1139.219 146.665 1139.149 147.665 C 1139.069 148.845 1139.069 148.845 1138.999 150.005 C 1136.959 148.515 1135.029 147.025 1133.179 145.315 C 1131.869 144.095 1130.549 142.895 1129.199 141.715 C 1115.039 130.675 1096.499 134.835 1083.309 145.435 Z" style="fill: rgb(188, 160, 87);"/>
  <path d="M0 0 C1.19 0.01 2.38 0.02 3.6 0.03 C4.52 0.04 5.43 0.05 6.38 0.06 C9.4 5.33 12.37 10.63 15.31 15.94 C15.73 16.69 16.15 17.44 16.58 18.21 C16.99 18.97 17.41 19.72 17.84 20.49 C18.46 21.62 18.46 21.62 19.1 22.77 C19.96 24.32 20.82 25.88 21.68 27.43 C24.01 31.63 26.37 35.8 28.81 39.94 C31.15 43.94 33.48 47.95 35.75 52 C36.23 52.85 36.71 53.71 37.21 54.59 C38.45 57.22 39.2 59.16 39.38 62.06 C38.16 64.74 38.16 64.74 36.44 67.38 C35.87 68.26 35.31 69.14 34.72 70.05 C34.28 70.71 33.83 71.38 33.38 72.06 C29.22 70.56 28 68.19 25.95 64.38 C25.32 63.23 24.68 62.07 24.03 60.88 C23.38 59.65 22.72 58.42 22.06 57.19 C21.1 55.4 20.13 53.62 19.16 51.84 C18.52 50.66 17.88 49.48 17.25 48.3 C14.53 43.27 11.62 38.37 8.64 33.48 C7.38 31.06 7.38 31.06 7.38 28.06 C6.71 28.06 6.06 28.06 5.38 28.06 C5.38 57.1 5.38 86.14 5.38 116.06 C1.08 116.06 -3.2 116.06 -7.62 116.06 C-8.62 115.06 -8.62 115.06 -8.75 113.16 C-8.75 112.32 -8.75 111.48 -8.75 110.61 C-8.75 109.65 -8.75 108.69 -8.75 107.7 C-8.75 106.64 -8.74 105.58 -8.74 104.48 C-8.74 103.37 -8.74 102.26 -8.74 101.11 C-8.74 97.42 -8.73 93.72 -8.72 90.03 C-8.72 87.47 -8.72 84.92 -8.72 82.36 C-8.71 76.31 -8.71 70.27 -8.7 64.22 C-8.69 57.33 -8.68 50.45 -8.68 43.56 C-8.66 29.4 -8.65 15.23 -8.62 1.06 C-5.74 -0.38 -3.21 -0.03 0 0 Z " transform="translate(427.625,105.9375)" style=""/>
  <path d="M0 0 C0.76 0.01 1.51 0.02 2.29 0.03 C3.08 0.05 3.87 0.08 4.68 0.11 C5.87 0.13 5.87 0.13 7.09 0.15 C9.06 0.18 11.02 0.24 12.99 0.29 C13.96 2.75 14.91 5.21 15.86 7.67 C16.13 8.35 16.4 9.03 16.68 9.73 C18.18 13.64 19.29 17.45 20.08 21.57 C20.25 22.46 20.43 23.35 20.6 24.26 C20.73 24.93 20.86 25.6 20.99 26.29 C22.21 26.3 23.43 26.3 24.69 26.31 C36.18 26.37 47.67 26.44 59.17 26.53 C65.07 26.57 70.98 26.61 76.89 26.64 C82.59 26.67 88.29 26.71 93.99 26.76 C96.17 26.77 98.34 26.78 100.52 26.79 C103.57 26.8 106.61 26.83 109.65 26.86 C110.56 26.86 111.46 26.86 112.4 26.86 C113.22 26.87 114.05 26.88 114.91 26.89 C115.63 26.9 116.35 26.9 117.09 26.91 C119.59 27.41 120.47 28.27 121.99 30.29 C122.75 37.11 120.88 42.65 118.68 49.04 C116.77 54.69 114.94 60.29 113.54 66.08 C111.83 73.13 109.65 80.01 107.43 86.92 C107.02 88.2 106.62 89.47 106.22 90.75 C105.83 91.95 105.44 93.16 105.05 94.39 C104.7 95.48 104.35 96.57 103.99 97.69 C102.99 100.29 102.99 100.29 100.99 102.29 C98.71 102.55 98.71 102.55 95.84 102.56 C94.76 102.57 93.69 102.58 92.58 102.6 C91.42 102.6 90.25 102.6 89.05 102.6 C86.61 102.63 84.16 102.65 81.71 102.68 C77.84 102.71 73.97 102.73 70.1 102.75 C66.38 102.77 62.65 102.81 58.93 102.85 C57.18 102.85 57.18 102.85 55.4 102.85 C54.32 102.87 53.25 102.88 52.14 102.89 C51.19 102.9 50.24 102.9 49.27 102.91 C48.14 103.1 48.14 103.1 46.99 103.29 C46.33 104.28 45.67 105.27 44.99 106.29 C62.48 106.62 79.97 106.95 97.99 107.29 C98.65 108.94 99.31 110.59 99.99 112.29 C98.32 113.96 96.29 113.45 94 113.49 C92.4 113.51 92.4 113.51 90.77 113.53 C85.89 113.58 81 113.62 76.12 113.64 C73.54 113.66 70.96 113.69 68.38 113.73 C64.67 113.78 60.96 113.8 57.25 113.82 C56.1 113.84 54.95 113.86 53.76 113.89 C45.85 113.86 45.85 113.86 41.87 111.23 C39.71 107.85 38.54 104.62 37.57 100.77 C37.16 99.24 36.74 97.71 36.32 96.18 C36.11 95.38 35.89 94.58 35.67 93.76 C34.51 89.57 33.2 85.43 31.9 81.29 C31.36 79.55 30.82 77.82 30.28 76.08 C29.87 74.77 29.87 74.77 29.45 73.43 C25.27 59.99 21.13 46.54 17.25 33.01 C15.28 26.15 13.1 19.38 10.76 12.64 C8.99 7.48 8.99 7.48 8.99 5.29 C8 5.32 7.01 5.34 6 5.36 C4.71 5.38 3.43 5.4 2.11 5.42 C0.2 5.45 0.2 5.45 -1.75 5.49 C-5.01 5.29 -5.01 5.29 -7.01 3.29 C-4.75 0.61 -3.51 -0.08 0 0 Z M25.99 33.29 C24.31 36.17 24.31 36.17 24.31 39.39 C24.57 40.13 24.84 40.88 25.11 41.64 C25.4 42.49 25.7 43.33 26 44.2 C26.32 45.09 26.65 45.99 26.99 46.92 C27.65 48.82 28.31 50.72 28.98 52.62 C29.48 54.06 29.48 54.06 30 55.51 C31.43 59.53 32.81 63.56 34.18 67.61 C34.54 68.69 34.54 68.69 34.92 69.8 C37.01 76.1 38.59 82.47 40.03 88.94 C40.99 92.3 41.88 94.52 43.99 97.29 C46.45 98.02 46.45 98.02 49.29 97.86 C50.91 97.86 50.91 97.86 52.56 97.86 C53.73 97.83 54.89 97.81 56.09 97.78 C57.29 97.77 58.48 97.77 59.71 97.76 C63.53 97.73 67.35 97.67 71.18 97.61 C73.76 97.58 76.35 97.56 78.94 97.54 C85.29 97.48 91.64 97.4 97.99 97.29 C104.65 77.74 111.18 58.24 116.42 38.24 C116.99 36.29 116.99 36.29 117.99 34.29 C114.13 33.01 110.5 33.16 106.48 33.18 C105.18 33.18 105.18 33.18 103.85 33.18 C100.97 33.18 98.1 33.19 95.23 33.2 C93.24 33.2 91.24 33.2 89.25 33.2 C84.01 33.2 78.77 33.21 73.53 33.22 C68.18 33.23 62.83 33.24 57.48 33.24 C46.98 33.25 36.49 33.27 25.99 33.29 Z " fill="#BCA057" transform="translate(125.01171875,114.70703125)"/>
  <path d="M0 0 C0.98 0.01 1.96 0.01 2.97 0.02 C3.95 0.01 4.93 0.01 5.94 0 C8.47 0.27 8.47 0.27 10.47 2.27 C10.66 4.92 10.72 7.46 10.7 10.11 C10.7 10.92 10.7 11.73 10.7 12.57 C10.7 15.25 10.68 17.93 10.66 20.62 C10.66 22.48 10.66 24.33 10.66 26.19 C10.65 31.09 10.63 35.98 10.61 40.88 C10.59 45.87 10.58 50.87 10.57 55.86 C10.54 65.66 10.51 75.46 10.47 85.27 C8.16 85.29 5.84 85.31 3.53 85.33 C2.24 85.34 0.96 85.35 -0.37 85.36 C-3.53 85.27 -3.53 85.27 -4.53 84.27 C-4.64 81.72 -4.68 79.2 -4.68 76.66 C-4.68 75.86 -4.68 75.06 -4.69 74.24 C-4.7 71.6 -4.7 68.95 -4.7 66.3 C-4.7 64.47 -4.71 62.64 -4.71 60.8 C-4.72 56.96 -4.72 53.11 -4.72 49.27 C-4.72 44.33 -4.73 39.39 -4.75 34.45 C-4.76 30.67 -4.76 26.88 -4.76 23.1 C-4.76 21.27 -4.77 19.45 -4.77 17.63 C-4.78 15.09 -4.78 12.55 -4.77 10 C-4.78 9.25 -4.79 8.49 -4.79 7.71 C-4.75 0.5 -4.75 0.5 0 0 Z " transform="translate(717.53125,136.734375)" style=""/>
  <path d="M0 0 C1.48 0.02 1.48 0.02 3 0.04 C3.99 0.05 4.98 0.06 6 0.06 C8.43 0.23 8.43 0.23 9.43 1.23 C9.53 3.85 9.56 6.44 9.55 9.05 C9.55 9.87 9.55 10.69 9.55 11.54 C9.55 14.26 9.54 16.98 9.53 19.7 C9.53 21.58 9.53 23.47 9.53 25.35 C9.52 30.31 9.51 35.28 9.5 40.24 C9.49 45.3 9.49 50.36 9.48 55.42 C9.47 65.36 9.45 75.29 9.43 85.23 C7.29 85.26 5.14 85.28 3 85.29 C1.8 85.3 0.61 85.32 -0.62 85.33 C-3.57 85.23 -3.57 85.23 -4.57 84.23 C-4.67 81.69 -4.71 79.17 -4.71 76.62 C-4.72 75.82 -4.72 75.03 -4.72 74.21 C-4.73 71.56 -4.73 68.91 -4.73 66.27 C-4.74 64.43 -4.74 62.6 -4.74 60.77 C-4.75 56.92 -4.75 53.08 -4.75 49.23 C-4.75 44.29 -4.77 39.36 -4.78 34.42 C-4.79 30.63 -4.8 26.85 -4.8 23.06 C-4.8 21.24 -4.8 19.42 -4.81 17.6 C-4.82 15.05 -4.82 12.51 -4.81 9.97 C-4.81 9.21 -4.82 8.45 -4.83 7.67 C-4.78 0.43 -4.78 0.43 0 0 Z " transform="translate(570.56640625,136.76953125)" style=""/>
  <path d="M0 0 C0.98 0.01 1.96 0.01 2.97 0.02 C3.95 0.01 4.93 0.01 5.94 0 C8.47 0.27 8.47 0.27 10.47 2.27 C10.61 5.01 10.66 7.65 10.59 10.39 C10.58 11.14 10.58 11.9 10.57 12.68 C10.54 14.54 10.51 16.4 10.47 18.27 C8.34 18.29 6.22 18.31 4.09 18.33 C2.91 18.34 1.73 18.35 0.51 18.36 C-2.53 18.27 -2.53 18.27 -4.53 17.27 C-4.59 14.81 -4.62 12.35 -4.66 9.89 C-4.67 9.19 -4.69 8.49 -4.71 7.77 C-4.72 5.94 -4.63 4.1 -4.53 2.27 C-2.53 0.27 -2.53 0.27 0 0 Z " transform="translate(717.53125,102.734375)" style=""/>
  <path d="M0 0 C1.48 0.02 1.48 0.02 3 0.04 C3.99 0.05 4.98 0.06 6 0.06 C8.43 0.23 8.43 0.23 9.43 1.23 C9.51 4.09 9.53 6.93 9.5 9.79 C9.49 10.6 9.49 11.41 9.48 12.24 C9.47 14.23 9.45 16.23 9.43 18.23 C7.29 18.26 5.14 18.28 3 18.29 C1.8 18.3 0.61 18.32 -0.62 18.33 C-3.57 18.23 -3.57 18.23 -4.57 17.23 C-4.69 14.74 -4.75 12.29 -4.75 9.79 C-4.77 9.1 -4.78 8.4 -4.79 7.69 C-4.8 5.87 -4.69 4.05 -4.57 2.23 C-2.57 0.23 -2.57 0.23 0 0 Z " transform="translate(570.56640625,102.76953125)" style=""/>
  <path d="M0 0 C2.76 2.39 2.98 3.85 3.44 7.5 C3 11 3 11 1.44 13.44 C-1.98 15.63 -4.01 15.63 -8 15 C-11 12.88 -11 12.88 -13 10 C-13.08 6.21 -12.5 4.59 -10.06 1.69 C-6.41 -1.3 -4.56 -1.21 0 0 Z " fill="#AB9250" transform="translate(216,232)"/>
  <path d="M0 0 C2.76 2.39 2.98 3.85 3.44 7.5 C3 11 3 11 1.38 13.44 C-1.78 15.51 -3.29 15.67 -7 15 C-9.69 13.59 -10.89 12.36 -13 10 C-13.16 6.18 -12.51 4.61 -10.06 1.69 C-6.41 -1.3 -4.56 -1.21 0 0 Z " fill="#A9904E" transform="translate(185,232)"/>
</svg>